<svg xmlns="http://www.w3.org/2000/svg" width="256" height="256" fill="none" viewBox="0 0 256 256">
  <defs>
    <linearGradient id="myraa-grad" x1="0%" y1="0%" x2="100%" y2="100%">
      <stop offset="0%" stop-color="#A78BFA"/>
      <stop offset="50%" stop-color="#34D399"/>
      <stop offset="100%" stop-color="#F472B6"/>
    </linearGradient>
    <linearGradient id="myraa-grad2" x1="0%" y1="100%" x2="100%" y2="0%">
      <stop offset="0%" stop-color="#6EE7B7"/>
      <stop offset="100%" stop-color="#C084FC"/>
    </linearGradient>
  </defs>
  <!-- Card / canvas background -->
  <rect width="256" height="256" rx="48" fill="#0F0F12"/>
  <!-- Glow ring -->
  <rect x="4" y="4" width="248" height="248" rx="44" stroke="url(#myraa-grad)" stroke-opacity="0.3" stroke-width="3" fill="none"/>
  <!-- Sparkle cross -->
  <g transform="translate(128, 96)">
    <line x1="-32" y1="0" x2="32" y2="0" stroke="url(#myraa-grad)" stroke-width="5" stroke-linecap="round"/>
    <line x1="0" y1="-32" x2="0" y2="32" stroke="url(#myraa-grad)" stroke-width="5" stroke-linecap="round"/>
  </g>
  <!-- Heart -->
  <path d="M128 192 C 128 192 64 144 64 104 C 64 80 84 64 100 64 C 112 64 120 72 128 90 C 136 72 144 64 156 64 C 172 64 192 80 192 104 C 192 144 128 192 128 192 Z" fill="url(#myraa-grad2)" opacity="0.95"/>
  <!-- Sparkle dots -->
  <circle cx="176" cy="76" r="5" fill="#34D399" opacity="0.8"/>
  <circle cx="72" cy="140" r="4" fill="#F472B6" opacity="0.7"/>
  <circle cx="200" cy="120" r="3" fill="#A78BFA" opacity="0.6"/>
</svg>
